<svg xmlns="http://www.w3.org/2000/svg" viewBox="2.83 2.84 21.45 27.82">
    <polygon
            points="13.55 23.12 14.72 22.45 14.72 17.57 18.92 15.14 18.92 13.8 17.75 13.12 13.53 15.56 9.36 13.16 8.19 13.83 8.19 15.18 12.39 17.6 12.39 22.45 13.55 23.12"
            fill="#e2baff"/>
    <polygon points="24.28 9.02 13.56 2.84 13.56 2.84 13.56 2.84 2.83 9.02 2.83 11.72 13.56 5.53 24.28 11.72 24.28 9.02"
             fill="#e2baff"/>
    <polygon
            points="24.28 21.78 13.56 27.97 2.83 21.78 2.83 24.48 13.56 30.66 13.56 30.66 13.56 30.66 24.28 24.48 24.28 21.78"
            fill="#e2baff"/>
</svg>